# xmcd
#
# Track frame offsets: 
#        150
#        15344
#        29141
#        40928
#        53819
#        65599
#        78560
#        91674
#        106383
#        117638
#        128457
#        142517
#        153407
#        162596
#        175513
#        185562
#        198660
#        213137
#        226888
#        241869
#        250400
#        262196
#        276121
#        286997
#        300624
#        309964
#        323324
#        335760
#        347143
#
# Disc length: 4764 seconds
#
# Revision: 0
# Processed by: cddbd v1.4PL0 Copyright (c) Steve Scherf et al.
# Submitted via: ExactAudioCopy v0.95a3
#
DISCID=95129a1d
DTITLE=Tubb, Ernest - 66-75 (4) Another Story
DYEAR=1999
DGENRE=Country
TTITLE0=Let's Wait A Little Longer (& Loretta Lynn)
TTITLE1=The Carroll County Accident
TTITLE2=I Started Loving You Again
TTITLE3=Games People Play
TTITLE4=She's Looking Better By The Minute
TTITLE5=Just A Drink Away
TTITLE6=Somebody Better Than Me
TTITLE7=Give My Love To Rose
TTITLE8=I'll Go On Alone
TTITLE9=I Need Attention Bad
TTITLE10=Yesterday's Tears
TTITLE11=Won't You Come Home (And Talk To A Stranger) (& Loretta Lynn)
TTITLE12=That Odd Couple (& Loretta Lynn)
TTITLE13=Touch And Go (& Loretta Lynn)
TTITLE14=Let The World Keep On A Turnin' (& Loretta Lynn)
TTITLE15=Blue Eyed Elaine
TTITLE16=Our Baby's Book
TTITLE17=I'm Free At Last
TTITLE18=You Won't Ever Forget Me
TTITLE19=It's America (Love It Or Leave It)
TTITLE20=A Good Year For The Wine
TTITLE21=When The Grass Grows Over Me
TTITLE22=Wine Me Up
TTITLE23=(I'm So) Afraid Of Losing You Again
TTITLE24=One Minute Past Eternity
TTITLE25=Be Glad
TTITLE26=Dear Judge
TTITLE27=Even The Bad Times Are Good
TTITLE28=She's A Little Bit Country
EXTD=
EXTT0=
EXTT1=
EXTT2=
EXTT3=
EXTT4=
EXTT5=
EXTT6=
EXTT7=
EXTT8=
EXTT9=
EXTT10=
EXTT11=
EXTT12=
EXTT13=
EXTT14=
EXTT15=
EXTT16=
EXTT17=
EXTT18=
EXTT19=
EXTT20=
EXTT21=
EXTT22=
EXTT23=
EXTT24=
EXTT25=
EXTT26=
EXTT27=
EXTT28=
PLAYORDER=
